<svg width="1920" height="1080" viewBox="0 0 1920 1080" fill="none" xmlns="http://www.w3.org/2000/svg">
<rect width="1920" height="1080" fill="#162322"/>
<path d="M935.889 571C933.994 571 932.372 570.325 931.022 568.975C929.672 567.624 928.998 566.003 929 564.111V515.889C929 513.994 929.675 512.372 931.025 511.022C932.376 509.672 933.997 508.998 935.889 509H984.111C986.006 509 987.628 509.675 988.978 511.025C990.328 512.376 991.002 513.997 991 515.889V564.111C991 566.006 990.325 567.628 988.975 568.978C987.624 570.328 986.003 571.002 984.111 571H935.889ZM939.333 557.222H980.667L967.75 540L957.417 553.778L949.667 543.444L939.333 557.222Z" fill="#20A36C"/>
</svg>
