<svg width="977" height="396" viewBox="0 0 977 396" fill="none" xmlns="http://www.w3.org/2000/svg">
<rect width="977" height="396" fill="#1e1b4b"/>
<path d="M463.889 229C461.994 229 460.372 228.325 459.022 226.975C457.672 225.624 456.998 224.003 457 222.111V173.889C457 171.994 457.675 170.372 459.025 169.022C460.376 167.672 461.997 166.998 463.889 167H512.111C514.006 167 515.628 167.675 516.978 169.025C518.328 170.376 519.002 171.997 519 173.889V222.111C519 224.006 518.325 225.628 516.975 226.978C515.624 228.328 514.003 229.002 512.111 229H463.889ZM467.333 215.222H508.667L495.75 198L485.417 211.778L477.667 201.444L467.333 215.222Z" fill="#4338ca"/>
</svg>
